HIERARCHY
ROOT Bip001_Pelvis
{
  OFFSET 34.4345 95.6767 -26.8758
  CHANNELS 6 Xposition Yposition Zposition Zrotation Xrotation Yrotation
  JOINT Bip001_Spine
  {
    OFFSET 1.4188e-005 10.2191 -0.0116013
    CHANNELS 3 Zrotation Xrotation Yrotation
    JOINT Bip001_L_Thigh
    {
      OFFSET 11.0458 -10.2192 0.0116197
      CHANNELS 3 Zrotation Xrotation Yrotation
      JOINT Bip001_L_Calf
      {
        OFFSET -0.707118 -44.0221 0.360014
        CHANNELS 3 Zrotation Xrotation Yrotation
        JOINT Bip001_L_Foot
        {
          OFFSET -0.651902 -40.5938 -3.56146
          CHANNELS 3 Zrotation Xrotation Yrotation
          JOINT Bip001_L_Toe0
          {
            OFFSET 0.0530839 -10.2181 13.1504
            CHANNELS 3 Zrotation Xrotation Yrotation
            End Site
            {
              OFFSET -1.02532e-005 0 7.55606
            }
          }
        }
      }
    }
    JOINT Bip001_R_Thigh
    {
      OFFSET -11.0458 -10.2191 0.0115893
      CHANNELS 3 Zrotation Xrotation Yrotation
      JOINT Bip001_R_Calf
      {
        OFFSET 0.706994 -44.0221 0.35984
        CHANNELS 3 Zrotation Xrotation Yrotation
        JOINT Bip001_R_Foot
        {
          OFFSET 0.651786 -40.5938 -3.5613
          CHANNELS 3 Zrotation Xrotation Yrotation
          JOINT Bip001_R_Toe0
          {
            OFFSET -0.0531479 -10.2181 13.1504
            CHANNELS 3 Zrotation Xrotation Yrotation
            End Site
            {
              OFFSET -1.02894e-005 0 7.55606
            }
          }
        }
      }
    }
    JOINT Bip001_Spine1
    {
      OFFSET 1.87041e-005 14.5736 1.08638
      CHANNELS 3 Zrotation Xrotation Yrotation
      JOINT Bip001_Spine2
      {
        OFFSET 2.24614e-005 14.5058 -1.69078
        CHANNELS 3 Zrotation Xrotation Yrotation
        JOINT Bip001_Neck
        {
          OFFSET 2.20278e-005 15.3945 -0.489414
          CHANNELS 3 Zrotation Xrotation Yrotation
          JOINT Bip001_L_Clavicle
          {
            OFFSET 6.06036 -0.000579998 0.00836775
            CHANNELS 3 Zrotation Xrotation Yrotation
            JOINT Bip001_L_UpperArm
            {
              OFFSET 11.5509 -0.0600302 0.00193952
              CHANNELS 3 Zrotation Xrotation Yrotation
              JOINT Bip001_L_Forearm
              {
                OFFSET 25.9523 0.0806089 -2.15551
                CHANNELS 3 Zrotation Xrotation Yrotation
                JOINT Bip001_L_Hand
                {
                  OFFSET 32.2475 0.153767 1.63968
                  CHANNELS 3 Zrotation Xrotation Yrotation
                  JOINT Bip001_L_Finger0
                  {
                    OFFSET 6.04639 -2.20976 5.90322
                    CHANNELS 3 Zrotation Xrotation Yrotation
                    End Site
                    {
                      OFFSET 4.22375 -1.43895 0.606485
                    }
                  }
                  JOINT Bip001_L_Finger1
                  {
                    OFFSET 11.0826 -0.704819 -0.198153
                    CHANNELS 3 Zrotation Xrotation Yrotation
                    End Site
                    {
                      OFFSET 6.20027 -0.397518 -0.0787166
                    }
                  }
                }
              }
            }
          }
          JOINT Bip001_R_Clavicle
          {
            OFFSET -6.06037 -0.000563197 0.00835105
            CHANNELS 3 Zrotation Xrotation Yrotation
            JOINT Bip001_R_UpperArm
            {
              OFFSET -11.5509 -0.0599978 0.00190698
              CHANNELS 3 Zrotation Xrotation Yrotation
              JOINT Bip001_R_Forearm
              {
                OFFSET -25.9523 0.0806822 -2.15589
                CHANNELS 3 Zrotation Xrotation Yrotation
                JOINT Bip001_R_Hand
                {
                  OFFSET -32.2475 0.153859 1.63989
                  CHANNELS 3 Zrotation Xrotation Yrotation
                  JOINT Bip001_R_Finger0
                  {
                    OFFSET -6.04641 -2.20976 5.90317
                    CHANNELS 3 Zrotation Xrotation Yrotation
                    End Site
                    {
                      OFFSET -4.22376 -1.43895 0.60647
                    }
                  }
                  JOINT Bip001_R_Finger1
                  {
                    OFFSET -11.0826 -0.704794 -0.198182
                    CHANNELS 3 Zrotation Xrotation Yrotation
                    End Site
                    {
                      OFFSET -6.20028 -0.397504 -0.0787333
                    }
                  }
                }
              }
            }
          }
          JOINT Bip001_Head
          {
            OFFSET 1.09673e-005 11.2744 2.05948
            CHANNELS 3 Zrotation Xrotation Yrotation
            End Site
            {
              OFFSET 2.89576e-005 20.8808 -2.77728e-005
            }
          }
        }
      }
    }
  }
}
MOTION
Frames:	12
Frame Time:	0.04
32.5639 95.7969 -29.5971 -0.0100693 -1.52924 1.21104 -0.235507 2.39857 -0.805955 6.73045 -1.05589 11.3291 -0.480939 7.65869 -1.73856 1.14512 -4.24053 0.00797235 1.44986 -4.5504 -1.01209 -3.93112 -1.44309 0.675325 0.545489 9.14409 -0.777979 -5.81549 -8.17504 -0.199402 2.48903 -8.36156 2.58236 -0.437909 4.79987 -1.60413 -0.437908 4.79989 -1.60413 5.17345 -3.48948 -1.1162 -27.9125 4.98945 -2.26091 -56.2489 36.7582 5.34581 12.5059 -7.84767 -27.9183 7.25332 0.595916 -2.67776 6.36111e-015 -3.18055e-015 -0 3.18055e-015 -3.18056e-015 3.18055e-015 21.4313 10.2129 16.1084 58.2455 8.33112 -16.5319 -31.6604 -1.41413 24.7824 -28.4831 -19.1189 -0.184677 -3.97569e-016 2.78299e-015 -6.36111e-015 -2.78299e-015 5.56597e-015 -6.36111e-015 -4.64801 3.50582 1.46056 
32.6846 95.7684 -29.5757 0.1556 -1.52459 1.59839 -0.237587 2.39725 -1.06672 6.44197 -1.14317 12.2598 -0.249136 7.72435 -2.91989 1.47371 -4.10047 0.00207954 1.508 -4.79165 -1.01091 -4.19926 -1.46598 0.358302 0.591475 9.3706 -0.741222 -5.88852 -8.37737 -0.0714639 2.54923 -8.54307 2.64154 -0.431256 4.79847 -2.12629 -0.43394 4.79839 -2.12612 5.30404 -3.20937 -0.619866 -27.2056 4.85032 -2.56088 -57.6192 35.598 6.98974 12.4828 -7.65116 -29.501 7.99506 0.412805 -3.25665 3.18055e-015 6.36111e-015 3.18055e-015 3.18055e-015 9.54167e-015 3.18055e-015 21.5307 9.26996 14.1609 57.2534 -1.70852 -19.3317 -36.5761 0.415722 35.5426 -37.2037 -18.9276 -0.642201 -3.57812e-015 -3.97569e-015 -3.18055e-015 7.95139e-016 -5.56597e-015 -3.18055e-015 -5.01643 3.29522 2.07191 
32.7632 95.7642 -29.5992 0.182208 -1.57562 1.74679 -0.160154 2.42419 -1.28976 6.52976 -1.15459 11.7383 -0.753968 7.85534 -2.16732 1.36033 -4.37757 0.00279937 1.40905 -4.59053 -0.957007 -4.32613 -1.51636 0.949728 0.667983 9.50144 -0.755551 -6.12134 -8.31473 -0.504697 2.6272 -8.75925 2.6919 -0.265949 4.85134 -2.57619 -0.26595 4.85134 -2.5762 5.19219 -2.93797 -0.0515416 -26.6472 4.85194 -3.22604 -58.6531 35.4988 8.59386 12.3468 -7.59165 -30.558 8.51926 0.367241 -3.4864 -3.18055e-015 -9.54166e-015 6.36111e-015 -6.36111e-015 -9.54167e-015 6.36111e-015 20.9893 8.17955 12.1914 55.5996 -12.2024 -22.0093 -45.5014 5.17151 48.3019 -44.7105 -19.6485 -0.789605 1.59028e-015 0 -3.18055e-015 3.18055e-015 -1.59028e-015 -0 -5.36869 3.15654 2.68764 
32.8635 95.7022 -29.6923 -0.0862559 -1.61613 1.85862 0.027608 2.49711 -1.5479 6.65524 -1.86236 13.0456 -0.553937 9.16603 -3.41857 1.85074 -4.75741 0.00402486 1.41929 -4.74327 -0.94749 -4.24905 -1.74619 1.48059 0.692515 9.74303 -0.672474 -6.40749 -8.21649 -0.97675 2.70732 -8.99761 2.76958 0.122916 4.99237 -3.10138 0.122916 4.99223 -3.10139 4.68726 -2.86124 0.672016 -25.9324 5.08938 -3.88431 -59.6684 36.0993 9.98553 12.9761 -6.67685 -31.1615 8.58932 0.171572 -3.7869 6.36111e-015 0 -0 6.36111e-015 0 -3.18055e-015 20.3714 7.36883 10.6031 51.5141 -25.0497 -24.6087 -49.5242 6.21044 62.6532 -50.4494 -19.9194 -0.225831 -1.59028e-015 0 3.18055e-015 -3.18055e-015 -3.18056e-015 -3.18055e-015 -5.39392 2.82396 3.24945 
33.1073 95.6734 -29.798 0.0418509 -1.383 1.613 0.167013 2.51599 -1.70966 6.40694 -2.33428 13.4873 -0.648381 9.78636 -3.3013 0.81435 -5.85044 0.0280973 0.860668 -3.81945 -0.50548 -4.68899 -2.37891 1.94027 0.788209 10.2488 -0.65268 -6.51809 -8.29464 -1.10377 2.78262 -9.22133 2.84404 0.402757 5.02611 -3.43184 0.409567 5.02619 -3.43166 3.54565 -3.36516 1.34359 -24.9814 5.91445 -4.52933 -60.2253 36.8264 11.3115 13.5247 -5.85647 -31.675 7.69572 0.172211 -3.99974 -6.36111e-015 3.18055e-015 -0 -3.18055e-015 0 -1.59028e-015 20.5094 7.20072 9.00687 44.4472 -39.3247 -29.0242 -52.1051 7.30738 78.6643 -55.9222 -19.4391 -0.358417 -6.36111e-015 0 3.18055e-015 -6.36111e-015 0 -0 -5.06519 3.33431 3.51348 
33.5597 95.6247 -30.1944 0.278533 -0.869754 0.446439 0.174436 2.42428 -1.62456 5.62099 -3.07237 13.4801 -0.201318 10.2905 -2.49764 0.782528 -6.13262 0.0293515 0.543327 -3.66976 -0.121478 -5.40776 -3.87686 3.56982 1.36872 11.3652 -0.87201 -6.66623 -8.32229 -1.52779 2.89032 -9.53191 2.93963 0.419016 4.84258 -3.261 0.42064 4.84271 -3.26095 3.27853 -2.97128 1.80232 -24.6964 5.72749 -5.04065 -60.7613 38.0904 12.7075 14.2188 -4.54588 -31.9766 7.32274 0.00590004 -4.25855 5.29669e-031 -9.54166e-015 3.18055e-015 3.53113e-031 -6.36111e-015 3.18055e-015 19.9466 6.40628 8.15572 39.2565 -46.1019 -32.8165 -53.9197 2.92479 88.7355 -58.8259 -18.8215 -0.485793 -3.18055e-015 0 -0 -6.36111e-015 -3.18056e-015 1.59028e-015 -5.22485 2.85683 3.91789 
33.7688 95.5418 -30.1617 0.142259 -0.695496 0.460524 0.205444 2.41792 -1.67196 5.63402 -3.57521 12.5775 -0.460591 10.9279 -1.69523 2.63581 -5.48027 0.0104363 1.31211 -4.75802 -0.726289 -5.37858 -4.1788 2.13463 0.954131 11.7473 -0.486544 -6.44444 -8.61786 -0.584067 2.92508 -9.65843 3.01076 0.480594 4.82892 -3.35543 0.482766 4.82892 -3.35627 3.36863 -2.94561 1.94941 -24.6313 5.73265 -5.11244 -61.2469 39.153 13.9196 15.0341 -3.78907 -32.2486 6.82485 0.248036 -4.17623 6.36111e-015 -9.54166e-015 -1.59028e-015 6.36111e-015 -3.18056e-015 -0 19.3712 6.25515 7.90271 34.2733 -50.076 -36.0531 -53.7882 -2.16152 95.7956 -61.5917 -18.3173 -0.777344 -3.18055e-015 6.36111e-015 3.18055e-015 -1.59028e-015 6.36111e-015 6.36111e-015 -5.37962 2.4768 4.10678 
33.9164 95.4589 -30.0897 -0.505695 -0.902847 -0.0226766 0.2998 2.50266 -1.49853 6.29853 -4.01435 12.151 -0.768699 12.4565 -1.20818 3.37936 -6.07722 0.0276396 1.29181 -4.96044 -0.593281 -4.81956 -4.01648 1.10556 0.439857 11.6127 -0.118536 -6.15137 -8.501 0.355648 2.99005 -9.9092 3.16322 0.678271 4.99677 -3.01601 0.664797 4.99665 -3.01533 3.0666 -3.22711 1.97647 -24.6523 6.04863 -5.10948 -60.9969 39.7433 14.3827 15.4813 -3.52457 -31.9976 6.65451 0.384843 -4.05217 6.36111e-015 9.54166e-015 -0 3.18055e-015 6.36111e-015 1.59028e-015 19.419 6.66365 8.46143 29.9742 -52.0121 -36.7228 -53.4185 -6.59493 99.7271 -63.7716 -16.9949 -1.49353 -3.18055e-015 3.18055e-015 -0 -1.76556e-031 6.36111e-015 1.59028e-015 -5.42348 2.57401 4.05898 
34.2223 95.3537 -30.169 -0.668063 -0.761357 -0.531849 0.289193 2.50791 -1.23076 6.33722 -4.6504 10.7918 -1.17838 13.4542 0.127229 4.76339 -5.88657 0.0258756 1.55979 -5.69008 -0.675056 -4.93299 -4.55775 0.330363 0.368483 12.1798 0.0423562 -5.95974 -8.76347 1.09689 2.99408 -9.99808 3.29498 0.630154 5.00919 -2.47784 0.635559 5.00897 -2.47789 2.56322 -3.67847 1.99135 -24.4091 6.43487 -4.7622 -60.7413 40.1729 14.1997 16.0715 -3.42682 -31.2488 6.57281 0.420792 -3.80067 -3.18055e-015 -3.18055e-015 -0 -8.82782e-032 -3.18056e-015 -1.59028e-015 19.9642 7.373 9.36987 24.7436 -54.1156 -37.7585 -51.3014 -9.59822 104.026 -64.7245 -15.4204 -2.08971 1.59028e-015 3.18055e-015 -7.15625e-015 1.59028e-015 3.18056e-015 -3.97569e-015 -5.40465 3.10531 3.94352 
34.374 95.2557 -30.2637 -0.967974 -0.687137 -0.639996 0.242979 2.53153 -0.936079 6.82428 -5.54232 9.77294 -1.56883 15.0354 1.17597 4.33255 -6.95445 0.0617794 1.3316 -5.28355 -0.500945 -4.68959 -4.92104 0.228873 0.388406 12.6027 0.275864 -6.1331 -8.73679 0.829395 3.03977 -10.1506 3.35706 0.528521 5.05873 -1.88566 0.528156 5.05873 -1.88567 2.49449 -4.32032 1.70481 -24.1124 6.86993 -4.22693 -60.6679 39.8218 13.2622 16.508 -3.0438 -30.1357 6.61032 0.650875 -3.43082 1.76556e-031 3.18055e-015 -3.18055e-015 -3.18055e-015 6.36111e-015 -1.59028e-015 20.105 8.4986 10.8627 22.2052 -55.7842 -35.4937 -50.1163 -11.4063 106.638 -64.9936 -14.1175 -2.2126 -1.59028e-015 -3.18055e-015 -7.95139e-016 -2.20695e-032 -3.18056e-015 -3.97569e-016 -5.39882 4.01997 3.66681 
34.51 95.1578 -30.3381 -1.2221 -0.654366 0.0951205 0.1969 2.55999 -0.710686 7.1305 -6.50648 8.50661 -1.77612 16.391 1.63115 4.55068 -7.46476 0.0913321 1.36053 -5.27329 -0.518461 -4.47998 -5.08828 -0.476031 0.380857 13.0499 0.26586 -6.33339 -8.80664 0.563276 3.12756 -10.3982 3.43823 0.425609 5.11729 -1.43235 0.42357 5.11736 -1.43219 2.78352 -4.78838 1.09561 -24.5298 7.08873 -3.60475 -60.3844 38.7186 12.6317 16.3956 -3.33142 -29.8872 7.44121 0.844279 -3.18679 3.18055e-015 3.18055e-015 -1.59028e-015 8.82782e-032 3.18056e-015 -1.59028e-015 19.4207 9.47218 12.5561 23.8037 -55.9554 -29.3192 -50.3343 -12.6977 107.806 -65.2 -12.5974 -2.30085 -2.38542e-015 3.18055e-015 -2.5842e-015 -3.18055e-015 6.36111e-015 1.98785e-016 -5.79049 4.75894 3.27468 
34.5836 95.0887 -30.4817 -1.43247 -0.345853 1.60008 0.197989 2.55443 -0.544713 7.19515 -7.8125 7.76749 -1.46873 17.46 0.664592 4.84159 -7.58352 0.0955486 1.35458 -5.35434 -0.492816 -4.35357 -5.23084 -1.28777 0.514358 13.14 0.0476698 -6.50071 -8.7496 -0.0626219 3.25009 -10.6462 3.40234 0.422495 5.10677 -1.10122 0.418965 5.10686 -1.10048 2.50226 -5.4855 0.376386 -25.087 7.49312 -2.71447 -59.5883 38.3118 12.0156 15.7724 -4.36287 -30.0202 8.08891 0.830831 -3.14691 -3.18055e-015 3.18055e-015 3.18055e-015 -4.77083e-015 6.36111e-015 1.59028e-015 18.3545 10.5052 14.2713 29.8393 -53.2647 -18.9214 -50.8471 -12.8615 107.109 -64.3709 -12.5653 -2.1673 -7.95139e-016 -3.18055e-015 1.2921e-015 7.95139e-016 0 2.38542e-015 -5.92661 5.63196 2.57489 
